<svg xmlns="http://www.w3.org/2000/svg" fill="none" viewBox="0 0 25 25"><g clip-path="url(#a)"><path d="M12.453 1.005C5.862 1.005.5 5.736.5 11.552c0 2.457.972 4.837 2.742 6.724a4.277 4.277 0 0 1-1.13 4.029.704.704 0 0 0 .497 1.2 7.752 7.752 0 0 0 5.37-2.169 13.26 13.26 0 0 0 4.473.763c6.591 0 12.047-4.731 12.047-10.547S19.044 1.005 12.453 1.005zM6.922 13.661a2.11 2.11 0 0 1-2.109-2.109 2.11 2.11 0 0 1 2.109-2.109 2.11 2.11 0 0 1 2.109 2.109 2.11 2.11 0 0 1-2.109 2.109zm5.625 0a2.11 2.11 0 0 1-2.109-2.109 2.11 2.11 0 0 1 2.109-2.109 2.11 2.11 0 0 1 2.109 2.109 2.11 2.11 0 0 1-2.109 2.109zm5.625 0a2.11 2.11 0 0 1-2.109-2.109 2.11 2.11 0 0 1 2.109-2.109 2.11 2.11 0 0 1 2.109 2.109 2.11 2.11 0 0 1-2.109 2.109z" fill="url(#b)"/></g><defs><linearGradient id="b" x1="12.823" y1="4.69" x2="13.468" y2="18.416" gradientUnits="userSpaceOnUse"><stop stop-color="#fff3c6"/><stop offset=".38" stop-color="#faf9ff"/><stop offset=".935" stop-color="#ffc2a9"/></linearGradient><clipPath id="a"><path fill="#fff" transform="translate(.5 .255)" d="M0 0h24v24H0z"/></clipPath></defs></svg>