<svg xmlns="http://www.w3.org/2000/svg" width="69" height="24" fill="none" xmlns:v="https://vecta.io/nano"><path d="M15.381 7.798h-4.678v8.406h4.678V7.798z" fill="#ff5f00"/><path d="M10.999 12c-.001-.809.183-1.609.536-2.337s.868-1.366 1.505-1.866c-.789-.62-1.736-1.005-2.733-1.112s-2.005.069-2.907.507-1.663 1.122-2.195 1.972-.814 1.833-.814 2.836.282 1.986.814 2.836 1.293 1.534 2.195 1.972 1.91.614 2.907.507 1.944-.493 2.733-1.112a5.34 5.34 0 0 1-1.505-1.866c-.354-.728-.537-1.527-.536-2.337z" fill="#eb001b"/><path d="M21.691 12c0 1.003-.282 1.986-.814 2.836s-1.293 1.534-2.195 1.972-1.909.614-2.907.507-1.944-.492-2.733-1.112c.636-.5 1.151-1.139 1.504-1.867s.537-1.527.537-2.336-.184-1.608-.537-2.336-.868-1.366-1.504-1.867c.789-.62 1.736-1.005 2.733-1.112s2.005.069 2.907.507 1.663 1.122 2.195 1.972.814 1.833.814 2.836z" fill="#f79e1b"/><path d="M31.034 13.907v-2.245c0-.859-.523-1.421-1.421-1.421-.449 0-.937.148-1.273.637-.262-.41-.637-.637-1.199-.637-.375 0-.75.113-1.046.523v-.449h-.785v3.593h.785v-1.984c0-.637.336-.937.859-.937s.785.336.785.938v1.984h.785v-1.984c0-.637.375-.937.859-.937.523 0 .785.336.785.938v1.984h.868zm11.642-3.593h-1.273V9.228h-.785v1.086h-.711v.711h.711v1.648c0 .824.336 1.308 1.234 1.308a2.11 2.11 0 0 0 .972-.262l-.227-.676c-.227.148-.488.187-.676.187-.375 0-.523-.227-.523-.597v-1.609h1.273v-.711h.004zm6.663-.079c-.449 0-.75.227-.937.523v-.449h-.785v3.593h.785v-2.023c0-.597.262-.937.75-.937.148 0 .336.039.488.074l.227-.75c-.157-.031-.379-.031-.528-.031zm-10.068.375c-.375-.262-.898-.375-1.461-.375-.898 0-1.496.449-1.496 1.16 0 .597.449.937 1.234 1.046l.375.039c.41.074.637.188.637.375 0 .262-.301.449-.824.449a2.07 2.07 0 0 1-1.199-.375l-.375.597c.41.301.972.449 1.535.449 1.047 0 1.648-.488 1.648-1.16 0-.637-.488-.972-1.234-1.086l-.375-.039c-.336-.039-.597-.113-.597-.336 0-.262.262-.41.676-.41.449 0 .898.188 1.125.301l.331-.637zm20.881-.375c-.449 0-.75.227-.937.523v-.449h-.785v3.593h.785v-2.023c0-.597.262-.937.75-.937.148 0 .336.039.488.074l.227-.741c-.153-.039-.375-.039-.528-.039zm-10.029 1.875c0 1.086.75 1.87 1.91 1.87.523 0 .898-.113 1.273-.41l-.375-.637c-.301.227-.597.336-.937.336-.637 0-1.086-.449-1.086-1.16 0-.676.449-1.125 1.086-1.16.336 0 .637.113.938.336l.375-.637c-.375-.301-.75-.41-1.273-.41-1.16-.004-1.91.785-1.91 1.871zm7.26 0v-1.796h-.785v.449c-.262-.336-.637-.523-1.125-.523-1.011 0-1.796.785-1.796 1.871s.785 1.87 1.796 1.87c.523 0 .898-.187 1.125-.523v.449h.785v-1.796zm-2.882 0c0-.637.41-1.16 1.086-1.16.637 0 1.086.488 1.086 1.16 0 .637-.449 1.16-1.086 1.16-.671-.039-1.086-.528-1.086-1.16zm-9.392-1.875c-1.046 0-1.796.75-1.796 1.871s.75 1.871 1.836 1.871c.523 0 1.047-.148 1.461-.488l-.375-.562c-.301.227-.676.375-1.046.375-.488 0-.972-.227-1.086-.859h2.655v-.301c.035-1.155-.641-1.905-1.648-1.905zm0 .676c.488 0 .824.301.898.859h-1.871c.074-.484.41-.859.972-.859zm19.499 1.199V8.893h-.785v1.871c-.262-.336-.637-.523-1.125-.523-1.012 0-1.796.785-1.796 1.871s.785 1.87 1.796 1.87c.523 0 .898-.187 1.125-.523v.449h.785v-1.796zm-2.882 0c0-.637.41-1.16 1.086-1.16.637 0 1.086.488 1.086 1.16 0 .637-.449 1.16-1.086 1.16a1.1 1.1 0 0 1-1.086-1.16zm-26.275 0v-1.796h-.785v.449c-.262-.336-.637-.523-1.125-.523-1.012 0-1.796.785-1.796 1.871s.785 1.87 1.796 1.87c.523 0 .898-.187 1.125-.523v.449h.785v-1.796zm-2.917 0c0-.637.41-1.16 1.086-1.16.637 0 1.086.488 1.086 1.16 0 .637-.449 1.16-1.086 1.16a1.1 1.1 0 0 1-1.086-1.16z" fill="#fff"/></svg>