<svg xmlns="http://www.w3.org/2000/svg" width="69" height="24" fill="#fff" xmlns:v="https://vecta.io/nano"><path d="M53.57 17.191h-2.871l-.307-1.346c-.037-.186-.103-.258-.334-.255l-3.454.002c-.174-.001-.244.051-.297.193l-.51 1.271c-.024.057-.104.136-.159.136l-3.143.006.566-1.225 4.015-8.616c.29-.622.724-.882 1.472-.883h2.521l.247 1.041 1.975 8.514.277 1.086v.076zm-3.758-3.809l-.91-3.924-.037-.007-1.584 3.93h2.531zm-8.75-7.1l1.136.193 1.041.263L42.702 9l-1.41-.366c-.645-.128-1.306-.177-1.951-.015a2.06 2.06 0 0 0-.734.351c-.354.273-.359.666-.021.953a4.6 4.6 0 0 0 .786.509l1.898.998c.719.428 1.243 1.015 1.354 1.81.195 1.406-.383 2.513-1.696 3.296-.825.493-1.759.713-2.733.794a10.79 10.79 0 0 1-3.989-.407l-.257-.089c-.025-.009-.047-.026-.086-.048l.556-2.342.641.251c1.014.368 2.062.536 3.148.353a2.38 2.38 0 0 0 .81-.304c.52-.313.569-.902.096-1.27-.311-.242-.685-.421-1.039-.615l-1.665-.901c-.671-.435-1.157-1.015-1.25-1.786-.138-1.154.338-2.091 1.323-2.82.857-.634 1.874-.915 2.958-1.033.06-.007.119-.025.178-.038h1.442zm-11.165.2l-.469 1.014-4.429 9.515c-.07.151-.156.191-.326.19a137.35 137.35 0 0 0-2.798.002c-.198.002-.262-.06-.308-.219L19.191 8.67a1.5 1.5 0 0 0-.969-1.07c-.863-.342-1.759-.582-2.673-.777l-.119-.027c.005-.322.005-.322.345-.322h4.897c.774 0 1.333.405 1.479 1.094l1.229 5.857.065.291.091-.156 3.036-6.921c.055-.126.123-.169.274-.168l2.84.004.209.008zm-1.236 10.715l2.548-10.712h3.093l-.381 1.609-2.097 8.843c-.048.205-.129.27-.365.266l-2.543-.006h-.254z"/></svg>